<?xml version="1.0" encoding="utf-8"?>
<!-- Generator: Adobe Illustrator 23.0.1, SVG Export Plug-In . SVG Version: 6.00 Build 0)  -->
<svg version="1.1" id="Layer_1" xmlns="http://www.w3.org/2000/svg" xmlns:xlink="http://www.w3.org/1999/xlink" x="0px" y="0px"
	 viewBox="0 0 715.87 554.74" style="enable-background:new 0 0 715.87 554.74;" xml:space="preserve">
<style type="text/css">
	.st0{fill:#FFFFFF;stroke:#282828;stroke-width:7;stroke-linecap:round;stroke-linejoin:round;stroke-miterlimit:10;}
	.st1{fill:#FFFFFF;fill-opacity:0.5;stroke:#282828;stroke-width:6;stroke-miterlimit:10;}
	.st2{fill:none;stroke:#282828;stroke-width:6;stroke-miterlimit:10;}
	.st3{fill:#282828;}
	.st4{fill:none;stroke:#282828;stroke-width:6;stroke-linecap:round;stroke-linejoin:round;stroke-miterlimit:10;}
	.st5{fill:none;stroke:#282828;stroke-width:9.303;stroke-linecap:round;stroke-linejoin:round;stroke-miterlimit:10;}
	.st6{fill:none;stroke:#282828;stroke-width:7;stroke-linecap:round;stroke-linejoin:round;stroke-miterlimit:10;}
</style>
<path class="st0" d="M310.39,181.23c2.85,1.73,27.64,14.78,50.12,29.05"/>
<g>
	<path class="st1" d="M180.65,207.99c-2.95,0.81-6.05,1.24-9.26,1.24c-19.33,0-35-15.67-35-35s15.67-35,35-35
		c16.91,0,31.03,12,34.29,27.95"/>
	<g>
		<g>
			<g>
				<line class="st2" x1="194.41" y1="149.71" x2="276.83" y2="67.28"/>
				<g>
					<polygon class="st3" points="282.82,78.22 289.01,55.11 265.89,61.3 					"/>
				</g>
			</g>
		</g>
		<g>
			<g>
				<line class="st2" x1="148.37" y1="195.74" x2="65.95" y2="278.17"/>
				<g>
					<polygon class="st3" points="67.86,233.33 53.47,296.07 107.24,279.28 					"/>
				</g>
			</g>
		</g>
		<polyline class="st4" points="253.18,64.08 289.01,55.11 279.65,90.56 		"/>
		<polyline class="st5" points="133.77,268.42 53.2,292.47 74.78,202.72 		"/>
	</g>
</g>
<path class="st0" d="M225.56,178.67c-1.94-3.42-9.43-10.22-10.17-14.44c-0.62-3.54-1.84-10.47,2-15c9.09-10.72,40.56-0.64,47,2
	c17.47,7.16,23.88,14.38,48,31l0,0"/>
<path class="st6" d="M362.74,208.6c2.31-3.45,15.74-14.79,31.14-18.88c24.61-6.52,43.99,8,45,9c3.27-2.96,8.6-7.12,16-10
	c6.88-2.68,30.33-10.01,78,19c10.87,6.61,79.52,48.4,110,118c5.5,12.56,11.02,28.91,27,46c17.18,18.38,27.79,17.64,36,32
	c12.13,21.22,3.07,47.49-4,68c-7.39,21.43-20.31,58.91-52,74c-19.23,9.16-34.83,5.05-103.5-14.5c-126.52-36.01-141.13-41.29-158-48
	c-9.68-3.85-50.82-25.41-102-51c0,0-19.68-11.94-54-46c-13.14-13.04-24.43-25.85-21-37c1.54-4.99,5.48-7.88,7-9
	c14.97-10.99,39.94,0.64,45,3c18.75,8.74,16.75,15.98,41,33c16.09,11.3,29.23,20.26,46,19c12.69-0.95,22.38-7.39,28-12
	c-7.08-8.55-18.71-22.15-34-38c-21.21-21.98-53.04-55.04-99-87c-18.12-12.6-34.15-28.02-52-41c-8.91-6.48-23.1-16.52-26-33
	c-0.62-3.54-1.84-10.47,2-15c9.09-10.72,38.56,1.36,45,4c17.47,7.16,23.88,14.38,48,31l0,0c2.85,1.73,35.51,29.73,58,44"/>
</svg>
