<?xml version="1.0" standalone="no"?>
<!DOCTYPE svg PUBLIC "-//W3C//DTD SVG 20010904//EN"
 "http://www.w3.org/TR/2001/REC-SVG-20010904/DTD/svg10.dtd">
<svg version="1.0" xmlns="http://www.w3.org/2000/svg"
 width="1080.000000pt" height="1080.000000pt" viewBox="0 0 1080.000000 1080.000000"
 preserveAspectRatio="xMidYMid meet">
<metadata>
Created by potrace 1.11, written by Peter Selinger 2001-2013
</metadata>
<g transform="translate(0.000000,1080.000000) scale(0.100000,-0.100000)"
fill="#000000" stroke="none">
<path d="M4618 10355 c-2 -1 -56 -6 -120 -9 -65 -4 -128 -9 -140 -11 -13 -2
-48 -6 -79 -10 -31 -3 -65 -7 -75 -9 -11 -2 -39 -7 -64 -10 -25 -3 -56 -8 -70
-11 -14 -3 -41 -8 -60 -11 -178 -31 -517 -135 -716 -219 -433 -185 -779 -419
-1115 -754 -263 -264 -446 -514 -637 -871 -123 -231 -271 -639 -307 -851 -3
-19 -10 -50 -15 -69 -4 -19 -14 -69 -20 -110 -6 -41 -13 -86 -16 -100 -2 -14
-6 -45 -9 -70 -3 -25 -8 -58 -10 -75 -21 -157 -28 -652 -12 -835 5 -52 9 -102
9 -110 0 -12 19 -162 33 -260 5 -32 52 -253 65 -305 6 -22 13 -50 15 -62 10
-46 95 -293 130 -379 42 -101 141 -303 180 -363 14 -23 25 -44 25 -49 0 -4 8
-17 18 -28 10 -10 21 -26 24 -34 10 -26 139 -202 209 -286 320 -379 754 -674
1269 -861 69 -25 134 -47 144 -49 10 -2 33 -8 51 -14 18 -6 41 -13 51 -15 10
-2 48 -12 84 -20 36 -9 74 -18 85 -21 83 -17 125 -25 155 -29 l36 -6 0 213 c0
117 4 261 8 319 l8 107 -53 17 c-111 36 -400 194 -499 272 -211 167 -338 294
-473 473 -279 370 -499 910 -573 1410 -3 19 -7 42 -9 50 -2 8 -7 40 -10 70 -3
30 -8 73 -11 95 -7 44 -8 57 -20 230 -15 217 -9 624 11 790 2 17 7 55 10 85
21 190 79 445 155 680 49 154 154 380 241 522 312 507 794 855 1354 978 229
50 321 58 620 54 325 -4 326 -4 538 -40 501 -85 816 -308 930 -659 38 -115 45
-193 42 -425 -3 -124 -6 -245 -8 -269 -6 -54 18 -84 61 -77 15 3 63 7 107 11
120 8 188 15 207 21 21 6 25 21 33 114 3 41 8 93 10 115 2 22 7 69 10 105 4
36 8 76 10 90 4 26 11 91 20 170 6 54 53 375 60 410 3 14 8 45 11 70 3 25 8
48 10 51 1 3 6 28 9 55 5 39 45 252 60 324 13 62 38 179 41 196 2 12 -2 26 -9
32 -11 9 -380 94 -467 107 -19 3 -46 8 -60 10 -14 3 -36 8 -50 10 -38 8 -282
47 -405 65 -38 6 -81 12 -95 15 -14 2 -47 6 -75 10 -27 3 -66 8 -85 10 -19 2
-72 7 -118 10 -45 3 -102 8 -125 11 -42 5 -534 13 -539 9z"/>
<path d="M5967 6804 c-1 -1 -29 -5 -62 -8 -219 -24 -477 -99 -650 -190 -117
-62 -120 -64 -242 -153 -119 -88 -222 -179 -294 -259 -24 -27 -47 -51 -50 -54
-12 -10 -167 -220 -190 -257 -13 -21 -27 -39 -31 -41 -4 -2 -8 -8 -8 -13 0 -5
-15 -32 -34 -61 -68 -108 -236 -422 -236 -442 0 -2 -13 -33 -29 -68 -59 -127
-170 -464 -196 -593 -3 -11 -16 -76 -30 -145 -14 -69 -28 -143 -30 -165 -3
-22 -7 -49 -9 -61 -4 -19 -10 -63 -21 -159 -14 -116 -20 -265 -19 -490 0 -336
12 -497 60 -765 42 -241 45 -251 129 -510 44 -138 175 -453 194 -470 4 -3 19
-30 35 -60 16 -30 42 -74 58 -98 15 -24 28 -46 28 -49 0 -11 144 -209 214
-293 107 -130 275 -293 406 -396 69 -54 256 -184 265 -184 3 0 24 -12 46 -26
172 -108 567 -270 758 -309 9 -2 37 -8 64 -14 26 -6 64 -14 85 -17 20 -3 40
-8 43 -9 3 -2 28 -7 55 -11 27 -3 51 -8 54 -9 3 -2 37 -6 75 -10 39 -4 79 -9
90 -11 92 -18 589 -24 790 -11 201 13 328 26 440 42 31 5 78 12 150 21 22 3
59 9 83 15 23 5 59 12 80 15 20 3 45 7 55 10 10 3 30 7 45 9 37 5 356 79 467
109 113 30 380 113 420 131 17 7 41 16 55 20 14 4 78 28 143 53 114 44 118 47
153 99 19 29 33 57 30 62 -8 12 -34 166 -41 246 -4 39 -8 81 -10 94 -26 158
-25 1011 0 1331 6 78 17 184 20 202 2 9 6 38 10 65 18 136 78 338 117 395 10
14 18 29 18 33 0 11 57 88 99 134 23 24 41 44 41 45 0 3 -18 99 -25 136 -3 14
-8 40 -11 58 l-6 33 -57 -5 c-31 -3 -90 -8 -131 -11 -41 -3 -88 -8 -105 -10
-232 -31 -1225 -26 -1852 9 -86 5 -110 4 -110 -6 0 -7 -10 -65 -21 -128 -12
-63 -24 -131 -27 -150 -3 -19 -12 -69 -20 -110 -24 -125 -25 -136 -12 -153 11
-14 65 -16 477 -20 469 -4 490 -6 590 -33 161 -45 228 -150 246 -386 5 -71 9
-1251 5 -1413 -1 -28 -8 -34 -96 -78 -52 -26 -96 -46 -98 -44 -2 1 -14 -5 -28
-14 -70 -46 -446 -183 -589 -215 -11 -2 -30 -6 -42 -9 -35 -8 -178 -33 -219
-39 -245 -35 -657 -24 -856 24 -24 5 -64 15 -90 21 -257 60 -558 206 -783 380
-334 259 -604 631 -783 1084 -68 173 -149 430 -171 545 -2 14 -11 59 -19 100
-29 145 -31 157 -42 255 -4 39 -9 72 -10 75 -26 43 -25 858 0 1100 2 19 6 62
10 95 14 139 17 160 49 345 34 199 134 492 227 665 160 298 409 539 717 694
67 34 224 95 275 107 166 39 386 50 502 24 33 -7 65 -15 72 -16 17 -3 124 -58
179 -93 27 -16 50 -28 53 -26 10 10 -91 146 -159 215 -182 184 -386 269 -658
274 -41 0 -74 0 -75 0z"/>
<path d="M6195 6355 c-44 -7 -106 -20 -137 -29 -32 -10 -60 -17 -63 -17 -11 1
-167 -70 -222 -100 -201 -111 -392 -278 -519 -454 -55 -77 -143 -241 -197
-365 -71 -165 -150 -513 -172 -755 -4 -38 -8 -81 -10 -95 -4 -24 -13 -170 -20
-318 -5 -94 -5 -549 -1 -592 2 -19 7 -75 11 -125 4 -49 8 -91 10 -93 3 -4 89
11 203 34 168 33 447 130 595 205 23 12 42 21 42 19 0 -13 324 189 395 247
246 199 396 383 526 645 85 170 169 413 198 573 23 122 38 214 42 253 2 26 6
57 8 68 20 104 22 605 3 719 -6 33 -246 159 -344 181 -57 12 -271 12 -348 -1z"/>
</g>
</svg>
